<svg width="59" height="59" viewBox="0 0 59 59" fill="none" xmlns="http://www.w3.org/2000/svg">
<path d="M50.5 34C50.5 47.8071 39.3071 59 25.5 59C11.6928 59 0 34.8071 0 21C0 7.19288 11.6928 9.00002 25.5 9.00002C39.3071 9.00002 50.5 20.1929 50.5 34Z" fill="#E11E64"/>
<path d="M58.5 25.0778C58.5 38.8849 47.3071 50.0778 33.5 50.0778C19.6928 50.0778 8 25.8849 8 12.0778C8 -1.72936 19.6928 0.0777802 33.5 0.0777802C47.3071 0.0777802 58.5 11.2707 58.5 25.0778Z" fill="#FF5631"/>
<path d="M31.9907 25.9238H26.5972L25.5718 29H22.3008L27.8584 14.0703H30.709L36.2974 29H33.0264L31.9907 25.9238ZM27.4277 23.4321H31.1602L29.2837 17.8438L27.4277 23.4321ZM37.6919 29V14.0703H42.9214C44.7329 14.0703 46.1069 14.4189 47.0435 15.1162C47.98 15.8066 48.4482 16.8218 48.4482 18.1616C48.4482 18.8931 48.2603 19.5391 47.8843 20.0996C47.5083 20.6533 46.9854 21.0601 46.3154 21.3198C47.0811 21.5112 47.6826 21.8975 48.1201 22.4785C48.5645 23.0596 48.7866 23.7705 48.7866 24.6113C48.7866 26.0469 48.3286 27.1338 47.4126 27.8721C46.4966 28.6104 45.1909 28.9863 43.4956 29H37.6919ZM40.7681 22.499V26.5288H43.4033C44.1279 26.5288 44.6919 26.3579 45.0952 26.0161C45.5054 25.6675 45.7104 25.189 45.7104 24.5806C45.7104 23.2134 45.0029 22.5195 43.5879 22.499H40.7681ZM40.7681 20.3252H43.0444C44.5962 20.2979 45.3721 19.6792 45.3721 18.4692C45.3721 17.7925 45.1738 17.3071 44.7773 17.0132C44.3877 16.7124 43.769 16.562 42.9214 16.562H40.7681V20.3252Z" fill="white"/>
</svg>
